<?xml version="1.0" standalone="no"?><!DOCTYPE svg PUBLIC "-//W3C//DTD SVG 1.1//EN" "http://www.w3.org/Graphics/SVG/1.1/DTD/svg11.dtd"><svg t="1689527103154" class="icon" viewBox="0 0 1024 1024" version="1.1" xmlns="http://www.w3.org/2000/svg" p-id="25615" width="128" height="128" xmlns:xlink="http://www.w3.org/1999/xlink"><path d="M901.236364 965.818182h-47.941819A362.821818 362.821818 0 0 0 653.614545 512a362.821818 362.821818 0 0 0 199.68-453.818182h47.941819a29.090909 29.090909 0 0 0 0-58.181818H121.6a29.090909 29.090909 0 0 0 0 58.181818H169.309091A362.821818 362.821818 0 0 0 368.989091 512 362.821818 362.821818 0 0 0 169.309091 965.818182h-46.545455a29.090909 29.090909 0 0 0 0 58.181818h779.636364a29.090909 29.090909 0 0 0 0-58.181818zM711.563636 352.349091a287.883636 287.883636 0 0 1-403.316363 0z" p-id="25616" fill="#b1afb0"></path></svg>