<?xml version="1.0" standalone="no"?><!DOCTYPE svg PUBLIC "-//W3C//DTD SVG 1.1//EN" "http://www.w3.org/Graphics/SVG/1.1/DTD/svg11.dtd"><svg t="1689526838973" class="icon" viewBox="0 0 1024 1024" version="1.1" xmlns="http://www.w3.org/2000/svg" p-id="18875" width="128" height="128" xmlns:xlink="http://www.w3.org/1999/xlink"><path d="M1002.2912 54.8864l1.2288-11.0592a22.65088 22.65088 0 0 0-4.9152-15.9744 24.576 24.576 0 0 0-17.24416-7.3728h-293.19168a25.10848 25.10848 0 0 0-23.38816 23.3472v15.9744a26.2144 26.2144 0 0 0 25.84576 22.1184h206.97088l-246.3744 243.3024a390.9632 390.9632 0 1 0 44.35968 44.2368l246.3744-244.5312-1.2288 210.1248a23.10144 23.10144 0 0 0 22.15936 23.3472h16.01536a21.9136 21.9136 0 0 0 23.38816-19.6608V54.8864z m-274.67776 565.248a322.7648 322.7648 0 1 1-322.7648-321.9456 322.68288 322.68288 0 0 1 322.7648 321.9456z m0 0" fill="#3C9DE1" p-id="18876"></path></svg>