<?xml version="1.0" standalone="no"?><!DOCTYPE svg PUBLIC "-//W3C//DTD SVG 1.1//EN" "http://www.w3.org/Graphics/SVG/1.1/DTD/svg11.dtd"><svg t="1689530418240" class="icon" viewBox="0 0 1024 1024" version="1.1" xmlns="http://www.w3.org/2000/svg" p-id="221969" width="128" height="128" xmlns:xlink="http://www.w3.org/1999/xlink"><path d="M666.8 684.3h-0.4c-4-0.1-7.9-1.8-10.6-4.7l-90.4-95.4c-5.8-6.1-5.5-15.7 0.6-21.5l248.3-235.4c2.9-2.8 7.4-3.9 10.9-4.2 4 0.1 7.9 1.8 10.6 4.7l90.4 95.4c2.8 2.9 4.3 6.8 4.2 10.9-0.1 4-1.8 7.9-4.7 10.6L677.3 680.1c-2.8 2.7-6.6 4.2-10.5 4.2z m-68.9-110l69.5 73.3 226.3-214.5-69.5-73.3-226.3 214.5z" fill="#333333" p-id="221970"></path><path d="M916.3 447.8c-4 0-8.1-1.6-11.1-4.8l-90.4-95.4c-2.8-2.9-4.3-6.8-4.2-10.9 0.1-4 1.8-7.9 4.7-10.6l35.5-33.6c9.2-8.7 21.6-13 33.9-13 12.7 0.3 24.4 5.6 33.1 14.8L964 343c18 19 17.2 49-1.8 67l-35.5 33.6c-2.9 2.8-6.6 4.2-10.4 4.2z m-68.9-110.1l69.5 73.3 24.4-23.1c6.8-6.4 7.1-17.2 0.6-24l-46.1-48.7c-3.1-3.3-7.3-5.2-11.9-5.3-4.1 0.1-8.9 1.5-12.1 4.7l-24.4 23.1zM541.1 722.1c-6.6 0-13-2.7-17.7-7.6-6.4-6.8-8.4-16.4-5.2-25.2l43.9-120.8c1.8-5 6-8.6 11.2-9.7 5.1-1 10.5 0.6 14.1 4.4l90.4 95.4c3.6 3.8 5 9.3 3.7 14.3-1.3 5.1-5.2 9.1-10.3 10.7L548.3 721c-2.4 0.7-4.8 1.1-7.2 1.1zM582.3 602l-31.4 86.4 87.9-26.7-56.5-59.7z" fill="#333333" p-id="221971"></path><path d="M610.8 943.4H128.4c-44.5 0-80.8-36.2-80.8-80.8V213.9c0-44.5 36.2-80.8 80.8-80.8h482.4c44.5 0 80.8 36.2 80.8 80.8v189.5c0 8.4-6.8 15.2-15.2 15.2-8.4 0-15.2-6.8-15.2-15.2V213.9c0-27.8-22.6-50.3-50.3-50.3H128.4c-27.8 0-50.3 22.6-50.3 50.3v648.7c0 27.8 22.6 50.4 50.3 50.4h482.4c27.8 0 50.3-22.6 50.3-50.4V719.4c0-8.4 6.8-15.2 15.2-15.2 8.4 0 15.2 6.8 15.2 15.2v143.2c0 44.6-36.2 80.8-80.7 80.8z" fill="#333333" p-id="221972"></path><path d="M575.9 409.5H163.2c-8.4 0-15.2-6.8-15.2-15.2 0-8.4 6.8-15.2 15.2-15.2h412.7c8.4 0 15.2 6.8 15.2 15.2 0 8.4-6.8 15.2-15.2 15.2zM561.3 553.5H163.2c-8.4 0-15.2-6.8-15.2-15.2 0-8.4 6.8-15.2 15.2-15.2h398.1c8.4 0 15.2 6.8 15.2 15.2 0 8.4-6.8 15.2-15.2 15.2zM428.8 697.5H163.2c-8.4 0-15.2-6.8-15.2-15.2 0-8.4 6.8-15.2 15.2-15.2h265.6c8.4 0 15.2 6.8 15.2 15.2 0 8.4-6.8 15.2-15.2 15.2z" fill="#333333" p-id="221973"></path></svg>