<?xml version="1.0" standalone="no"?><!DOCTYPE svg PUBLIC "-//W3C//DTD SVG 1.1//EN" "http://www.w3.org/Graphics/SVG/1.1/DTD/svg11.dtd"><svg t="1689530335858" class="icon" viewBox="0 0 1024 1024" version="1.1" xmlns="http://www.w3.org/2000/svg" p-id="209539" width="128" height="128" xmlns:xlink="http://www.w3.org/1999/xlink"><path d="M313.107692 155.569231c5.907692 9.846154 3.938462 21.661538-5.907692 27.569231-104.369231 68.923077-169.353846 185.107692-169.353846 315.076923 0 206.769231 167.384615 374.153846 374.153846 374.153846 23.630769 0 47.261538-1.969231 68.923077-5.907693 9.846154-1.969231 21.661538 5.907692 23.630769 15.753847 1.969231 9.846154-5.907692 21.661538-15.753846 23.630769-25.6 3.938462-51.2 7.876923-76.8 7.876923-228.430769 0-413.538462-185.107692-413.538462-413.538462 0-145.723077 70.892308-275.692308 187.076924-350.523077 9.846154-5.907692 21.661538-3.938462 27.56923 5.907693z m445.046154 397.784615c88.615385 0 161.476923 72.861538 161.476923 161.476923s-72.861538 161.476923-161.476923 161.476923-161.476923-72.861538-161.476923-161.476923 70.892308-161.476923 161.476923-161.476923z m-19.692308 214.646154c-9.846154 9.846154-9.846154 25.6 0 33.476923 9.846154 9.846154 25.6 9.846154 33.476924 0 9.846154-9.846154 9.846154-25.6 0-33.476923-7.876923-9.846154-23.630769-9.846154-33.476924 0z m-41.353846-49.230769c-7.876923 7.876923-7.876923 17.723077 0 25.6s17.723077 7.876923 25.6 0c17.723077-17.723077 47.261538-17.723077 66.953846 0 7.876923 7.876923 17.723077 7.876923 25.6 0s7.876923-17.723077 0-25.6a85.661538 85.661538 0 0 0-118.153846 0z m-45.292307-45.292308c-7.876923 7.876923-7.876923 17.723077 0 25.6s17.723077 7.876923 25.6 0c43.323077-43.323077 114.215385-43.323077 157.538461 0 7.876923 7.876923 17.723077 7.876923 25.6 0s7.876923-17.723077 0-25.6c-57.107692-57.107692-151.630769-57.107692-208.738461 0zM512 157.538462c11.815385 0 19.692308 7.876923 19.692308 19.692307v366.276923l92.553846-92.553846c7.876923-7.876923 17.723077-7.876923 25.6-1.969231l1.969231 1.969231c7.876923 7.876923 7.876923 17.723077 1.96923 25.6l-1.96923 1.969231-126.03077 126.030769c-7.876923 7.876923-17.723077 7.876923-25.6 1.969231l-1.96923-1.969231-126.03077-126.030769c-7.876923-7.876923-7.876923-19.692308 0-27.569231 7.876923-7.876923 17.723077-7.876923 25.6-1.969231l1.969231 1.969231 92.553846 92.553846V177.230769c0-11.815385 7.876923-19.692308 19.692308-19.692307z m212.676923-17.723077C848.738462 214.646154 925.538462 348.553846 925.538462 496.246154c0 15.753846 0 31.507692-1.969231 47.261538-1.969231 9.846154-11.815385 17.723077-21.661539 17.723077-9.846154-1.969231-17.723077-11.815385-17.723077-21.661538 1.969231-13.784615 1.969231-27.569231 1.969231-41.353846 0-133.907692-70.892308-254.030769-183.138461-322.953847-9.846154-5.907692-11.815385-17.723077-5.907693-27.56923 5.907692-9.846154 17.723077-11.815385 27.569231-7.876923z" p-id="209540" fill="#333333"></path></svg>