<?xml version="1.0" standalone="no"?><!DOCTYPE svg PUBLIC "-//W3C//DTD SVG 1.1//EN" "http://www.w3.org/Graphics/SVG/1.1/DTD/svg11.dtd"><svg t="1689530495145" class="icon" viewBox="0 0 1024 1024" version="1.1" xmlns="http://www.w3.org/2000/svg" p-id="229986" width="128" height="128" xmlns:xlink="http://www.w3.org/1999/xlink"><path d="M833.40329 0H189.962223C85.067258 0 0 86.346465 0 191.24143v642.16186A189.962223 189.962223 0 0 0 189.962223 1023.365513H441.326378v-86.986068H189.962223c-56.285103 0-102.336551-46.051448-102.336551-102.976155V191.24143c0-56.285103 46.051448-103.615758 102.336551-103.615758h643.441067c56.285103 0 102.336551 47.330655 102.336551 103.615758v249.445344H1023.365513v-249.445344C1023.365513 86.346465 938.298255 0 833.40329 0z" fill="#333333" p-id="229987"></path><path d="M345.705662 325.558154h470.684176a24.11305 24.11305 0 0 0 23.729288-24.496812v-28.718195a24.17701 24.17701 0 0 0-23.793248-24.496812H345.705662a24.17701 24.17701 0 0 0-23.793248 24.496812v28.718195a24.240971 24.240971 0 0 0 23.793248 24.496812zM237.356839 247.334653l-30.381164 0.511682a24.17701 24.17701 0 0 0-23.793248 24.496812v28.718195c0 13.495633 10.617417 24.496812 23.793248 24.496812l30.381164-0.511683a24.11305 24.11305 0 0 0 23.729288-24.496812V271.831464a24.11305 24.11305 0 0 0-23.729288-24.496811zM321.976375 504.199396c0 13.495633 10.617417 24.496812 23.793248 24.496812h470.684176a24.11305 24.11305 0 0 0 23.729287-24.496812v-28.718194a24.17701 24.17701 0 0 0-23.793248-24.496812H345.705662a24.17701 24.17701 0 0 0-23.793248 24.496812v28.718194zM261.086127 474.969519a24.17701 24.17701 0 0 0-23.793249-24.496812l-30.317203 0.511683a24.17701 24.17701 0 0 0-23.793248 24.496812v28.718194c0 13.495633 10.617417 24.496812 23.793248 24.496812l30.381164-0.511682a24.11305 24.11305 0 0 0 23.729288-24.496812v-28.718195zM321.720533 707.27349c0 13.495633 10.617417 24.496812 23.793248 24.496812h235.374069a24.11305 24.11305 0 0 0 23.729287-24.496812v-28.718194a24.17701 24.17701 0 0 0-23.793248-24.496812h-235.374068a24.17701 24.17701 0 0 0-23.793248 24.496812v28.718194zM237.164958 653.610761l-30.381164 0.511683a24.17701 24.17701 0 0 0-23.793248 24.496812v28.718195c0 13.495633 10.617417 24.496812 23.793248 24.496812l30.381164-0.511683a24.11305 24.11305 0 0 0 23.729288-24.496812v-28.718195a24.11305 24.11305 0 0 0-23.729288-24.496812zM1012.044532 958.445764l-102.784273-102.784274 102.784273-102.784274c7.291479-7.291479 11.320981-16.821571 11.320981-26.799384s-4.029502-19.507905-11.320981-26.799385a37.544722 37.544722 0 0 0-53.662729 0l-102.784273 102.784274-102.848235-102.848234a37.480762 37.480762 0 0 0-53.598768 0.06396 37.480762 37.480762 0 0 0-11.1291 26.799385c0 10.169695 3.965541 19.699786 11.1291 26.799384l102.848234 102.848234-102.848234 102.848234a37.736603 37.736603 0 0 0 0 53.598769 37.736603 37.736603 0 0 0 53.598768 0l102.848235-102.848234 102.784273 102.784274a37.544722 37.544722 0 0 0 53.662729 0 37.800564 37.800564 0 0 0 11.320981-26.799385 37.864524 37.864524 0 0 0-11.320981-26.863344z" fill="#333333" p-id="229988"></path></svg>