<?xml version="1.0" standalone="no"?><!DOCTYPE svg PUBLIC "-//W3C//DTD SVG 1.1//EN" "http://www.w3.org/Graphics/SVG/1.1/DTD/svg11.dtd"><svg t="1689528250232" class="icon" viewBox="0 0 1024 1024" version="1.1" xmlns="http://www.w3.org/2000/svg" p-id="76930" width="128" height="128" xmlns:xlink="http://www.w3.org/1999/xlink"><path d="M797.145807 860.208587 236.235864 860.208587c-71.278393 0-129.268132-57.712423-129.268132-129.105427L106.967732 256.487605c0-34.558074 13.44829-66.997903 37.866423-91.312682 24.37413-24.26873 56.834426-37.653575 91.40171-37.653575l560.909943 0c34.56319 0 67.251683 13.396101 91.544973 37.685297s37.945217 56.719816 37.945217 91.28096l0 474.615555C926.635997 802.496164 868.244099 860.208587 797.145807 860.208587zM236.235864 170.500209c-47.540759 0-86.289272 38.633902-86.289272 85.987397l0 474.615555c0 47.65537 38.748513 87.149872 86.289272 87.149872l560.909943 0c47.360657 0 85.488023-39.494503 85.488023-87.149872L882.63383 256.487605c0-47.352471-38.127366-85.987397-85.488023-85.987397L236.235864 170.500209z" fill="#333333" p-id="76931"></path><path d="M494.928694 636.414591c-5.52176 0-11.042497-2.106987-15.255449-6.318916L330.028017 480.450447c-8.423857-8.42488-8.423857-22.084994 0-30.508851 8.425903-8.425903 22.084994-8.425903 30.509874 0l134.390803 134.390803 224.814232-224.814232c8.423857-8.42488 22.083971-8.42488 30.507828 0 8.425903 8.42488 8.425903 22.084994 0 30.508851l-240.067634 240.068657C505.970168 634.308627 500.449431 636.414591 494.928694 636.414591z" fill="#333333" p-id="76932"></path></svg>