<?xml version="1.0" standalone="no"?><!DOCTYPE svg PUBLIC "-//W3C//DTD SVG 1.1//EN" "http://www.w3.org/Graphics/SVG/1.1/DTD/svg11.dtd"><svg t="1689528197050" class="icon" viewBox="0 0 1024 1024" version="1.1" xmlns="http://www.w3.org/2000/svg" p-id="61871" width="128" height="128" xmlns:xlink="http://www.w3.org/1999/xlink"><path d="M925.7344316 244.28948543H292.96412445c-26.77105146 0-48.67463901 21.90358755-48.67463902 48.67463902v632.77030715c0 26.77105146 21.90358755 48.67463901 48.67463902 48.67463902h632.77030715c26.77105146 0 48.67463901-21.90358755 48.67463902-48.67463902V292.96412445c0-26.77105146-21.90358755-48.67463901-48.67463902-48.67463902z m-80.31315436 330.98754529l-94.91554608 92.48181412c-4.86746391 4.86746391-7.30119586 12.16865976-7.30119584 19.46985561l21.90358755 131.42152533c2.43373195 17.03612365-14.6023917 31.63851535-31.63851536 21.90358755L616.65047387 779.71051457c-7.30119586-2.43373195-14.6023917-2.43373195-19.4698556 0l-116.81913362 60.84329876c-14.6023917 7.30119586-34.07224732-4.86746391-31.63851537-21.90358755l21.90358756-131.42152533c0-7.30119586 0-14.6023917-7.30119585-19.46985561l-94.91554608-92.48181412c-12.16865976-12.16865976-4.86746391-34.07224732 12.16865976-36.50597926l131.42152533-19.4698556c7.30119586 0 12.16865976-4.86746391 17.03612365-12.16865977l58.40956681-119.25286557c7.30119586-14.6023917 29.20478341-14.6023917 38.93971122 0l58.40956681 119.25286557c2.43373195 7.30119586 9.7349278 9.7349278 17.03612365 12.16865977l131.42152534 19.4698556c19.4698556 2.43373195 26.77105146 24.33731951 12.16865976 36.50597926zM146.94020741 195.61484642c0-26.77105146 21.90358755-48.67463901 48.67463901-48.67463901h584.09566815V98.2655684c0-26.77105146-21.90358755-48.67463901-48.67463902-48.67463902H98.2655684c-26.77105146 0-48.67463901 21.90358755-48.67463902 48.67463902v632.77030715c0 26.77105146 21.90358755 48.67463901 48.67463902 48.67463902h48.67463901V195.61484642z" p-id="61872" fill="#fff"></path></svg>