<?xml version="1.0" standalone="no"?><!DOCTYPE svg PUBLIC "-//W3C//DTD SVG 1.1//EN" "http://www.w3.org/Graphics/SVG/1.1/DTD/svg11.dtd"><svg t="1689530453708" class="icon" viewBox="0 0 1502 1024" version="1.1" xmlns="http://www.w3.org/2000/svg" p-id="224855" width="187.75" height="128" xmlns:xlink="http://www.w3.org/1999/xlink"><path d="M1482.403928 551.152023a69.789997 69.789997 0 0 0-98.916996-0.406l-246.050988 262.421987V81.960046c0-38.185998 2.396-88.557996-81.245996-81.245996-38.022998 3.25-40.621998 43.059998-40.621998 81.245996v731.207964L794.701961 548.714023a68.205997 68.205997 0 0 0-97.494995-0.812 69.992997 69.992997 0 0 0-0.528 98.306995l318.888984 329.449984a225.293989 225.293989 0 0 0 40.621998 40.622998c17.589999 5.28 27.623999 12.592999 40.622998 0l40.622998-40.622998 345.292984-326.199984a69.749997 69.749997 0 0 0-0.285-98.306995zM60.933997 447.564028h446.849978a60.933997 60.933997 0 0 1 0 121.867994H60.933997a60.933997 60.933997 0 0 1 0-121.867994z m0 446.849978h649.962968a60.933997 60.933997 0 0 1 0 121.867994H60.933997a60.933997 60.933997 0 0 1 0-121.867994z m0-893.699956h649.962968a60.933997 60.933997 0 0 1 0 121.867994H60.933997a60.933997 60.933997 0 0 1 0-121.867994z" p-id="224856" fill="#333333"></path></svg>