<?xml version="1.0" standalone="no"?><!DOCTYPE svg PUBLIC "-//W3C//DTD SVG 1.1//EN" "http://www.w3.org/Graphics/SVG/1.1/DTD/svg11.dtd"><svg t="1689528361823" class="icon" viewBox="0 0 1024 1024" version="1.1" xmlns="http://www.w3.org/2000/svg" p-id="80609" width="128" height="128" xmlns:xlink="http://www.w3.org/1999/xlink"><path d="M768 659.072V0C588.608 3.712 398.784 48 219.456 109.696c-0.064-1.28 0 548.544 0 548.544-32.32-7.808-87.36-2.304-125.824 16C22.4 708.416-16.64 777.408 6.848 828.416c23.36 50.816 100.096 64.576 171.392 30.464 65.216-36.864 96.128-90.944 96.128-145.792l0.832-466.304c141.312-43.776 296.704-74.24 437.952-82.304v438.848c-41.152-7.616-88.896 3.648-128.256 22.592-71.36 34.048-110.208 103.04-86.784 153.984 23.424 51.008 100.032 64.768 171.392 30.592C720.256 786.24 768 743.936 768 659.072zM896 832V704h-64v128H704v64h128v128h64V896h128v-64z" p-id="80610" fill="#333333"></path></svg>