<?xml version="1.0" standalone="no"?><!DOCTYPE svg PUBLIC "-//W3C//DTD SVG 1.1//EN" "http://www.w3.org/Graphics/SVG/1.1/DTD/svg11.dtd"><svg t="1689530371176" class="icon" viewBox="0 0 1024 1024" version="1.1" xmlns="http://www.w3.org/2000/svg" p-id="215733" width="128" height="128" xmlns:xlink="http://www.w3.org/1999/xlink"><path d="M79.956021 154.545231v720.990523c0.057764 39.725949 32.242872 71.911056 71.96882 71.96882h720.985272c39.725949-0.057764 71.911056-32.242872 71.96882-71.96882V154.550482c-0.057764-39.725949-32.242872-71.911056-71.96882-71.96882H151.924841c-39.725949 0.057764-71.911056 32.242872-71.96882 71.96882z m396.419282 324.460964H260.148513a35.981785 35.981785 0 0 0-36.039549 36.034297 35.960779 35.960779 0 0 0 36.039549 36.039549h216.232041v216.232041a35.981785 35.981785 0 0 0 36.034297 36.039549 35.960779 35.960779 0 0 0 36.039549-36.039549v-216.232041h216.232041a35.981785 35.981785 0 0 0 36.039549-36.039549 35.960779 35.960779 0 0 0-36.039549-36.034297h-216.232041V262.774154a35.981785 35.981785 0 0 0-36.039549-36.039549 35.960779 35.960779 0 0 0-36.034297 36.039549v216.232041zM7.876923 154.545231C7.934687 75.019815 72.394174 10.555077 151.91959 10.502564h720.990523c79.530667 0.057764 143.990154 64.517251 144.042666 144.042667v720.990523c-0.052513 79.530667-64.512 143.990154-144.042666 144.042667H151.924841c-79.530667-0.052513-143.990154-64.512-144.047918-144.042667V154.550482z" fill="#333333" p-id="215734"></path></svg>