<?xml version="1.0" standalone="no"?><!DOCTYPE svg PUBLIC "-//W3C//DTD SVG 1.1//EN" "http://www.w3.org/Graphics/SVG/1.1/DTD/svg11.dtd"><svg t="1689528541522" class="icon" viewBox="0 0 1024 1024" version="1.1" xmlns="http://www.w3.org/2000/svg" p-id="99101" width="128" height="128" xmlns:xlink="http://www.w3.org/1999/xlink"><path d="M850.516 964H172.839C110.54 963.823 60.103 913.314 60 850.999V173.001C59.89 110.7 110.296 60.108 172.579 60h677.937C913.02 59.929 963.787 110.479 964 173.001v678c-0.181 62.535-50.965 113.107-113.484 112.999z m56.742-791.001c0.071-31.084-25.022-56.359-56.097-56.5H172.839c-31.075 0.142-56.167 25.417-56.097 56.5v678c-0.11 31.097 25.006 56.392 56.097 56.5h678.323c31.027-0.071 56.128-25.269 56.097-56.306V172.999zM669.971 532.187L404.317 705.298c-14.184 9.481-33.53 4.58-33.53-23.09V341.532c0-27.798 18.056-31.603 33.53-23.09l265.654 173.176c11.279 6.875 14.86 21.598 7.981 32.885-0.079 0.132-0.157 0.264-0.244 0.396a23.293 23.293 0 0 1-7.737 7.291v-0.003z" fill="#999999" p-id="99102"></path></svg>