<?xml version="1.0" standalone="no"?><!DOCTYPE svg PUBLIC "-//W3C//DTD SVG 1.1//EN" "http://www.w3.org/Graphics/SVG/1.1/DTD/svg11.dtd"><svg t="1689528154726" class="icon" viewBox="0 0 1024 1024" version="1.1" xmlns="http://www.w3.org/2000/svg" p-id="58462" width="128" height="128" xmlns:xlink="http://www.w3.org/1999/xlink"><path d="M510.464 72.704c-266.24 0-446.464 183.296-446.464 409.088 0 94.72 31.744 181.248 88.064 250.88l-66.56 191.488c-7.168 20.992 3.584 31.232 24.576 22.528l216.576-88.576c54.784 20.992 116.736 32.768 183.808 32.768 266.24 0 446.464-183.296 446.464-409.088s-180.224-409.088-446.464-409.088zM287.232 542.72c-33.792 0-60.928-27.136-60.928-60.928 0-33.792 27.136-60.928 60.928-60.928S348.16 448.512 348.16 482.304c0 33.28-27.136 60.416-60.928 60.416z m223.232 0c-33.792 0-60.928-27.136-60.928-60.928 0-33.792 27.136-60.928 60.928-60.928 33.792 0 60.928 27.136 60.928 60.928 0 33.792-27.136 60.928-60.928 60.928z m223.232 0c-33.792 0-60.928-27.136-60.928-60.928 0-33.792 27.136-60.928 60.928-60.928 33.792 0 60.928 27.136 60.928 60.928 0 33.792-27.136 60.928-60.928 60.928z" fill="#fff" p-id="58463"></path></svg>