<?xml version="1.0" standalone="no"?><!DOCTYPE svg PUBLIC "-//W3C//DTD SVG 1.1//EN" "http://www.w3.org/Graphics/SVG/1.1/DTD/svg11.dtd"><svg t="1689529268104" class="icon" viewBox="0 0 1024 1024" version="1.1" xmlns="http://www.w3.org/2000/svg" p-id="148413" width="128" height="128" xmlns:xlink="http://www.w3.org/1999/xlink"><path d="M344.992 160C207.744 160 96 265.6 96 395.52c0 6.976 0.64 13.6 1.12 20.48H161.28c-0.64-6.72-1.248-13.504-1.248-20.48C160 300.96 243.008 224 344.992 224c46.624 0 91.136 16.128 125.376 45.376L512 304.992l41.6-35.616C587.776 240.128 632.288 224 679.04 224 780.992 224 864 300.992 864 395.52c0 163.84-154.368 260.992-278.496 339.104-28.384 17.76-53.248 33.504-73.504 48.384-20.256-14.88-45.12-30.624-73.504-48.384-57.856-36.384-122.24-76.992-174.624-126.624H176.992c63.36 77.12 153.12 134.016 227.52 180.864 31.104 19.52 57.856 36.384 76.864 51.264 0 0 30.4 23.616 30.624 23.872 0.128-0.256 30.496-23.872 30.496-23.872 19.008-14.88 45.76-31.744 76.992-51.264C749.632 706.88 928 594.752 928 395.52 928 265.632 816.256 160 679.008 160c-62.4 0-121.504 21.76-167.008 60.736C466.496 181.76 407.264 160 344.992 160z m38.016 140.384l-74.752 186.624L301.248 480H96v64h178.752l56.864 56.992 53.376-133.376 96 224 66.24-165.6 9.024 17.984h60.384A63.968 63.968 0 0 0 736 512a63.968 63.968 0 0 0-119.36-32h-20.896l-55.008-110.016-61.76 154.4z" p-id="148414" fill="#333333"></path></svg>