<?xml version="1.0" standalone="no"?><!DOCTYPE svg PUBLIC "-//W3C//DTD SVG 1.1//EN" "http://www.w3.org/Graphics/SVG/1.1/DTD/svg11.dtd"><svg t="1689530187238" class="icon" viewBox="0 0 1024 1024" version="1.1" xmlns="http://www.w3.org/2000/svg" p-id="202655" width="128" height="128" xmlns:xlink="http://www.w3.org/1999/xlink"><path d="M862 393.57H712c-71.68 0-130-58.32-130-130V112c0-12.15 7.32-23.11 18.55-27.73a29.938 29.938 0 0 1 32.71 6.59l250 251.56c8.55 8.59 11.07 21.47 6.43 32.67s-15.58 18.48-27.69 18.48zM642 184.75v78.82c0 38.59 31.41 70 70 70h77.89L642 184.75zM494.55 748.86c-7.68 0-15.35-2.93-21.21-8.79L360.2 626.95c-11.72-11.72-11.72-30.7 0-42.42 11.7-11.72 30.7-11.72 42.42 0l113.13 113.12c11.72 11.72 11.72 30.7 0 42.42-5.84 5.86-13.53 8.79-21.2 8.79z" p-id="202656" fill="#333333"></path><path d="M381.41 862c-7.68 0-15.35-2.93-21.21-8.79-11.72-11.72-11.72-30.7 0-42.42l113.13-113.14c11.7-11.72 30.7-11.72 42.42 0s11.72 30.7 0 42.42L402.62 853.21c-5.84 5.86-13.53 8.79-21.21 8.79z" p-id="202657" fill="#333333"></path><path d="M494.55 748.86H162c-16.57 0-30-13.44-30-30s13.43-30 30-30h332.55c16.57 0 30 13.44 30 30s-13.43 30-30 30z" p-id="202658" fill="#333333"></path><path d="M762 942H470.52c-16.57 0-30-13.44-30-30s13.43-30 30-30H762c38.59 0 70-31.41 70-70V393.57H712c-71.68 0-130-58.32-130-130V142H262c-38.59 0-70 31.41-70 70v360c0 16.56-13.43 30-30 30s-30-13.44-30-30V212c0-71.68 58.32-130 130-130h350c16.56 0 30 13.43 30 30v151.56c0 38.59 31.41 70 70 70h150c16.56 0 30 13.43 30 30V812c0 71.68-58.32 130-130 130z" p-id="202659" fill="#333333"></path></svg>