<?xml version="1.0" standalone="no"?><!DOCTYPE svg PUBLIC "-//W3C//DTD SVG 1.1//EN" "http://www.w3.org/Graphics/SVG/1.1/DTD/svg11.dtd"><svg t="1689530092571" class="icon" viewBox="0 0 1024 1024" version="1.1" xmlns="http://www.w3.org/2000/svg" p-id="188241" width="128" height="128" xmlns:xlink="http://www.w3.org/1999/xlink"><path d="M916.48 148.992v218.624c0 11.264-3.584 20.48-11.776 28.16-7.68 7.68-16.896 11.264-27.648 11.264-11.264 0-19.968-3.584-27.648-11.776-7.68-7.68-11.776-16.896-11.776-27.648V243.2L539.136 541.184c-7.68 7.68-16.896 11.776-27.648 11.776-11.264 0-20.48-3.584-27.648-11.264-7.168-7.168-11.264-16.896-11.264-27.648 0-11.264 3.584-20.48 11.264-27.648l298.496-297.984H658.432c-10.752 0-19.968-4.096-27.648-11.776s-11.776-16.896-11.776-27.648c0-11.264 3.584-19.968 11.776-27.648 7.68-7.68 16.896-11.776 27.648-11.776h219.136c10.24 0 20.48 4.096 27.648 11.776 7.168 7.68 11.264 17.408 11.264 27.648z" fill="#333333" p-id="188242"></path><path d="M914.432 555.52c-5.12 49.152-18.944 96.256-40.96 140.8-45.056 89.088-120.832 157.696-212.992 194.048-47.616 18.432-97.792 28.16-149.504 28.16-53.248 0-105.984-10.752-156.16-31.744-48.128-20.48-91.136-49.152-129.024-86.528-38.4-38.912-67.072-81.92-86.528-128.512-20.992-49.664-31.744-102.4-31.744-156.672 0-51.712 9.216-101.376 28.16-148.48 36.864-92.16 105.984-167.424 194.56-212.48 44.032-22.016 91.136-35.84 139.776-40.96l4.608-0.512c3.584 0 6.656-1.024 10.24 0 5.632 1.024 9.728 3.072 13.312 5.632 5.12 2.56 8.704 6.656 11.776 12.288 3.072 5.632 4.608 12.288 4.608 19.456 0 9.728-3.584 18.432-10.24 26.112-6.144 7.168-14.336 11.264-24.576 12.8-80.384 7.68-154.624 44.544-208.896 104.96-27.648 30.208-48.64 64-61.952 99.328-15.36 38.912-23.04 79.36-23.04 119.808 0 44.032 8.704 86.528 25.088 126.976 15.872 37.888 39.424 72.704 70.144 103.936 30.208 29.696 65.024 53.248 103.936 70.144 40.96 17.408 83.968 25.6 127.488 25.088 40.96 0 81.408-7.68 119.296-22.528 37.376-14.336 70.656-35.328 99.84-61.952 30.208-27.136 54.272-58.88 72.192-94.208 18.432-36.864 29.184-75.264 32.768-113.664 1.024-10.24 5.632-18.944 12.8-25.088 7.168-6.656 15.872-9.728 26.112-9.728 11.776 0 21.504 4.096 29.184 12.8 7.168 8.704 10.752 19.968 9.728 30.72z" fill="#333333" p-id="188243"></path></svg>