<?xml version="1.0" standalone="no"?><!DOCTYPE svg PUBLIC "-//W3C//DTD SVG 1.1//EN" "http://www.w3.org/Graphics/SVG/1.1/DTD/svg11.dtd"><svg t="1689529374377" class="icon" viewBox="0 0 1024 1024" version="1.1" xmlns="http://www.w3.org/2000/svg" p-id="161894" width="128" height="128" xmlns:xlink="http://www.w3.org/1999/xlink"><path d="M1024.183147 519.546043v-2.612242a26.702925 26.702925 0 0 0 0-4.643987 29.024919 29.024919 0 0 0 0-4.063489 8.417226 8.417226 0 0 0 0-2.612242 26.412676 26.412676 0 0 0-2.031744-4.063489 11.319718 11.319718 0 0 0-1.741495-3.192741A24.96143 24.96143 0 0 0 1016.05617 493.423617l-2.612242-3.482991-2.612243-2.031744a12.480715 12.480715 0 0 0-3.48299-3.192741l-2.612243-1.451246-4.063489-2.321993h-2.902492l-4.643987-1.451246h-15.673456l-6.095233 1.451246a294.893173 294.893173 0 0 1-95.782231 15.963705 290.249186 290.249186 0 0 1-290.249186-290.249186 297.505416 297.505416 0 0 1 34.829902-139.029361 10.448971 10.448971 0 0 0 0-2.612242 17.7052 17.7052 0 0 0 0.290249-6.965981 35.990899 35.990899 0 0 0 0-4.643987 6.96598 6.96598 0 0 0 0-2.321993v-4.934236a11.609967 11.609967 0 0 0 0-3.192741 22.349187 22.349187 0 0 0 0-4.353738v-3.48299-3.77324c0-1.160997 0-2.612243-1.451246-3.48299a36.861647 36.861647 0 0 0-2.031744-3.48299l-2.612243-3.192741-2.612242-2.902492a13.641712 13.641712 0 0 0-2.902492-2.902492l-2.902492-2.031744a11.029469 11.029469 0 0 0-3.773239-2.612243 5.804984 5.804984 0 0 0-2.321994 0H586.487374A475.718416 475.718416 0 0 0 512.183583 0a511.999565 511.999565 0 1 0 511.709315 522.448535zM512.183583 942.729357a430.729792 430.729792 0 0 1 0-861.459585H522.632553a374.7117 374.7117 0 0 0-20.897941 121.904658 372.970204 372.970204 0 0 0 372.679955 373.550703 393.287647 393.287647 0 0 0 64.14507-5.514734 432.471288 432.471288 0 0 1-426.376054 371.518958z" p-id="161895" fill="#333333"></path></svg>