<?xml version="1.0" standalone="no"?><!DOCTYPE svg PUBLIC "-//W3C//DTD SVG 1.1//EN" "http://www.w3.org/Graphics/SVG/1.1/DTD/svg11.dtd"><svg t="1689530001312" class="icon" viewBox="0 0 1024 1024" version="1.1" xmlns="http://www.w3.org/2000/svg" p-id="181946" width="128" height="128" xmlns:xlink="http://www.w3.org/1999/xlink"><path d="M804.7 928.7H219.9c-34.3 0-62.2-27.9-62.2-62.2V157.4c0-34.3 27.9-62.2 62.2-62.2h425.6c12.8 0 25.3 5.2 34.3 14.3l98.7 99.6 73.2 69.3c9.6 9.1 15.1 21.9 15.1 35.1v553c0.1 34.4-27.8 62.2-62.1 62.2z m-584.8-792c-11.4 0-20.7 9.3-20.7 20.7v709.2c0 11.4 9.3 20.7 20.7 20.7h584.8c11.4 0 20.7-9.3 20.7-20.7v-553c0-1.9-0.8-3.7-2.2-5l-73.7-69.8-0.2-0.2-99-99.9c-1.3-1.3-3.1-2-4.9-2H219.9z" fill="#333333" p-id="181947"></path><path d="M646 372.7c-16.2 0-31.8-6.4-43.7-18.3-15.9-15.9-21.9-38.3-16.1-60l42.5-158.8c3.2-12.1 12.4-21.2 24.4-24.4 12.1-3.2 24.5 0.1 33.4 8.9l150.1 150.1c8.8 8.8 12.2 21.3 8.9 33.4-3.2 12.1-12.4 21.2-24.4 24.4l-158.8 42.5c-5.4 1.4-10.9 2.2-16.3 2.2z m-19.7-67.6c-2.8 10.4 2.8 17.5 5.4 20 2.5 2.5 9.6 8.2 20 5.4L798.9 291 665.7 157.9l-39.4 147.2z" fill="#333333" p-id="181948"></path><path d="M548.6 379.6H304.5c-11.4 0-20.7-9.3-20.7-20.7s9.3-20.7 20.7-20.7h244.1c11.4 0 20.7 9.3 20.7 20.7s-9.3 20.7-20.7 20.7zM643 532.7H304.5c-11.4 0-20.7-9.3-20.7-20.7 0-11.4 9.3-20.7 20.7-20.7H643c11.4 0 20.7 9.3 20.7 20.7 0 11.4-9.3 20.7-20.7 20.7zM643 685.8H304.5c-11.4 0-20.7-9.3-20.7-20.7s9.3-20.7 20.7-20.7H643c11.4 0 20.7 9.3 20.7 20.7s-9.3 20.7-20.7 20.7z" fill="#333333" p-id="181949"></path></svg>