<?xml version="1.0" standalone="no"?><!DOCTYPE svg PUBLIC "-//W3C//DTD SVG 1.1//EN" "http://www.w3.org/Graphics/SVG/1.1/DTD/svg11.dtd"><svg t="1689529222019" class="icon" viewBox="0 0 1024 1024" version="1.1" xmlns="http://www.w3.org/2000/svg" p-id="145935" width="128" height="128" xmlns:xlink="http://www.w3.org/1999/xlink"><path d="M671.1 317.7c-8.9-13.8-21.5-24.5-38-32.2s-35.3-12-57.1-12c-23 0-43.3 4.9-60.7 14.1-17.5 9.2-30.4 21.5-39.6 35.6-8.9 14.1-13.5 28.5-13.5 42.6 0 6.7 3.1 12.9 8.6 19 5.5 5.8 12.6 8.9 20.9 8.9 14.1 0 23.3-8.3 28.5-24.8 5.2-16 12-28.2 19.6-36.5 7.7-8.3 19.6-12.3 36.2-12.3 13.8 0 25.2 4 34 12.3 8.9 8.3 13.5 18.1 13.5 30.1 0 5.8-1.5 11.7-4.3 16.9-3.1 5.2-6.4 10.1-10.7 14.1-4 4-11 10.4-20.6 18.7-10.7 9.2-19.3 17.5-25.8 24.5-6.4 7.1-11.7 15.3-15.3 23.9-3.7 8.9-5.8 19.6-5.8 32.2 0 10.1 2.5 17.5 7.7 22.4 5.2 5.2 12 7.4 19.3 7.4 15 0 23.3-7.7 26.4-23 1.5-7.4 3.1-12.3 3.7-15.3 0.6-3.1 1.8-5.8 3.4-8.6 1.5-3.1 3.7-5.8 6.7-9.8 3.1-3.4 7.1-7.4 12.3-12.3 18.1-16.3 31-27.9 38-34.7 7.1-6.7 12.9-15 18.1-24.5 5.2-9.2 7.7-20.6 7.7-33.1 0.6-15.4-4-30.4-13.2-43.6M571.1 541c-10.1 0-18.7 3.4-25.8 10.1-7.1 6.7-10.4 15.3-10.4 24.8 0 11 3.7 19.6 10.7 26.1 7.1 6.4 15.6 9.2 25.2 9.2 9.2 0 17.5-3.1 24.5-9.2 7.1-6.4 10.7-14.7 10.7-26.1 0-10.1-3.4-18.1-10.1-24.8-6.7-6.7-15-10.1-24.8-10.1z m0 0" p-id="145936" fill="#333333"></path><path d="M871.7 726c0 11.7-9.5 20.9-20.9 21.5H297.5c-11.7 0-20.9-9.5-21.5-20.9V173.2c0-12 9.5-21.5 21.5-21.5h552.8c11.7 0 20.9 9.5 21.5 20.9V726z m-122.4 77v49.1c0 11.7-9.5 21.2-21.2 21.5H171.7c-11.7 0-21.2-9.5-21.5-21.2V295.9c0-12 9.5-21.5 21.5-21.5h47.9l2.1 163.5v280.7c0 17.8 5.5 34 15 47.5l9.8 11.7c15 14.7 35.3 23.9 58 24.2h324.8l120 1z m93.6-705.2h-538c-45.7 0-82.8 37.1-82.8 82.5v42H181c-45.7 0-82.8 37.1-82.8 82.5v538.4c0 45.7 36.5 82.8 82.8 82.8h538.4c45.7 0 82.8-37.1 82.8-82.5v-41.7h41.1c45.7 0 82.8-37.1 82.8-82.5V180.6c-0.4-45.7-37.2-82.8-83.2-82.8z m0 0" p-id="145937" fill="#333333"></path></svg>