<?xml version="1.0" standalone="no"?><!DOCTYPE svg PUBLIC "-//W3C//DTD SVG 1.1//EN" "http://www.w3.org/Graphics/SVG/1.1/DTD/svg11.dtd"><svg t="1689529970553" class="icon" viewBox="0 0 1024 1024" version="1.1" xmlns="http://www.w3.org/2000/svg" p-id="180727" width="128" height="128" xmlns:xlink="http://www.w3.org/1999/xlink"><path d="M512 160c212.0768 0 384 171.9232 384 384S724.0768 928 512 928 128 756.0768 128 544s171.9232-384 384-384z m0 48c-185.568 0-336 150.432-336 336s150.432 336 336 336 336-150.432 336-336-150.432-336-336-336z m0 88c13.088 0 23.728 10.4752 23.9952 23.4976L536 320v200h144c13.2544 0 24 10.7456 24 24 0 13.088-10.4752 23.728-23.4976 23.9952L680 568H512c-13.088 0-23.728-10.4752-23.9952-23.4976L488 544V320c0-13.2544 10.7456-24 24-24zM284.1104 103.0896c9.3712 9.3728 9.3712 24.5696 0 33.9424l-147.0784 147.0784c-9.3728 9.3712-24.5696 9.3712-33.9424 0-9.3712-9.3728-9.3712-24.5696 0-33.9424l147.0784-147.0784c9.3728-9.3712 24.5696-9.3712 33.9424 0z m489.7216 0l147.0784 147.0784c9.3712 9.3728 9.3712 24.5696 0 33.9424-9.3728 9.3712-24.5696 9.3712-33.9424 0l-147.0784-147.0784c-9.3712-9.3728-9.3712-24.5696 0-33.9424 9.3728-9.3712 24.5696-9.3712 33.9424 0z" fill="#333333" p-id="180728"></path></svg>