<?xml version="1.0" standalone="no"?><!DOCTYPE svg PUBLIC "-//W3C//DTD SVG 1.1//EN" "http://www.w3.org/Graphics/SVG/1.1/DTD/svg11.dtd"><svg t="1689530238324" class="icon" viewBox="0 0 1024 1024" version="1.1" xmlns="http://www.w3.org/2000/svg" p-id="206838" width="128" height="128" xmlns:xlink="http://www.w3.org/1999/xlink"><path d="M520.234667 124.586667L844.8 237.653333a25.6 25.6 0 0 1 17.152 24.149334v220.032c0 177.92-110.805333 350.464-342.997333 418.005333a25.6 25.6 0 0 1-15.530667-0.426667c-241.834667-83.754667-334.037333-237.141333-334.037333-417.578666V261.802667a25.6 25.6 0 0 1 17.024-24.106667l316.8-113.066667a25.6 25.6 0 0 1 17.024-0.042666z m-8.32 51.328L220.586667 279.850667v201.984c0 158.122667 78.165333 290.005333 291.84 366.506666 203.392-62.208 298.325333-211.968 298.325333-366.506666v-201.813334l-298.837333-104.106666z m0.042666 151.594666a119.893333 119.893333 0 0 1 25.6 237.056v106.325334a25.6 25.6 0 1 1-51.2 0v-106.325334a119.936 119.936 0 0 1 25.6-237.056z m0 51.2a68.693333 68.693333 0 1 0 0 137.386667 68.693333 68.693333 0 0 0 0-137.386667z" p-id="206839" fill="#333333"></path></svg>