<?xml version="1.0" standalone="no"?><!DOCTYPE svg PUBLIC "-//W3C//DTD SVG 1.1//EN" "http://www.w3.org/Graphics/SVG/1.1/DTD/svg11.dtd"><svg t="1689529915771" class="icon" viewBox="0 0 1024 1024" version="1.1" xmlns="http://www.w3.org/2000/svg" p-id="176078" width="128" height="128" xmlns:xlink="http://www.w3.org/1999/xlink"><path d="M202.832 246.464c-61.132 70.656-98.377 163.447-98.377 264.937 0 0.211 0 0.422 0.001 0.633 0 225.039 182.472 407.512 407.544 407.512 101.424 0 194.208-37.056 265.536-98.376l-574.704-574.704zM240.272 208.28l575.448 575.448c64.421-71.568 103.824-166.766 103.824-271.169 0-0.197 0-0.393 0-0.59 0-225.041-182.472-407.513-407.544-407.513-104.4 0-199.632 39.264-271.728 103.824zM512 973.040c-254.64 0-461.040-206.4-461.040-461.040s206.4-461.040 461.040-461.040c254.64 0 461.040 206.4 461.040 461.040 0 254.64-206.4 461.040-461.040 461.040z" p-id="176079" fill="#333333"></path></svg>