<?xml version="1.0" standalone="no"?><!DOCTYPE svg PUBLIC "-//W3C//DTD SVG 1.1//EN" "http://www.w3.org/Graphics/SVG/1.1/DTD/svg11.dtd"><svg t="1689605030307" class="icon" viewBox="0 0 1258 1024" version="1.1" xmlns="http://www.w3.org/2000/svg" p-id="6657" width="157.25" height="128" xmlns:xlink="http://www.w3.org/1999/xlink"><path d="M318.592 302.737c-32.571 0-64.523-21.514-64.523-53.462 0-32.571 31.954-53.462 63.903-53.462 32.571 0 53.462 20.895 53.462 53.462 0.619 31.954-20.895 53.462-52.843 53.462zM617.835 195.812c32.571 0 53.462 20.895 53.462 53.462 0 31.954-20.895 53.462-53.462 53.462-31.954 0-64.523-21.514-64.523-53.462 0-32.571 32.569-53.462 64.523-53.462zM848.266 311.948c13.518 0 27.037 0.619 41.167 2.455-37.484-172.667-221.828-300.477-431.977-300.477-235.34 0-428.289 160.375-428.29 363.772 0 117.983 63.903 213.84 171.437 288.805l-43.012 129.040 149.935-74.966c53.462 10.443 96.476 21.514 149.935 21.514 12.9 0 26.421-0.619 39.938-1.842-8.599-28.266-13.518-58.99-13.518-89.717 0-186.794 160.375-338.574 364.384-338.574z" fill="#25b415" p-id="6658"></path><path d="M992.050 591.532c-20.895 0-42.403-20.895-42.403-42.403 0.619-21.514 21.514-43.012 42.403-43.012 32.569 0 54.075 21.514 54.075 43.012 0 21.514-21.514 42.403-54.075 42.403zM756.707 591.532c-20.895 0-42.403-20.895-42.403-42.403s21.514-43.012 42.403-43.012c32.569 0 53.462 21.514 53.462 43.012 0.619 21.514-20.895 42.403-53.462 42.403zM1238.451 645.611c0-171.437-171.437-310.928-363.772-310.928-203.385 0-363.772 139.483-363.772 310.928 0 171.437 160.375 310.313 363.772 310.313 43.012 0 86.028-11.063 128.428-21.514l117.983 64.523-32.569-106.916c86.028-64.523 149.927-149.927 149.927-246.404z" fill="#25b415" p-id="6659"></path></svg>